<svg width="1200" height="630" xmlns="http://www.w3.org/2000/svg">
  <defs>
    <linearGradient id="bg" x1="0" y1="0" x2="1" y2="1">
      <stop offset="0%" stop-color="#0A0F0D"/>
      <stop offset="100%" stop-color="#0D1F12"/>
    </linearGradient>
    <pattern id="grid" width="40" height="40" patternUnits="userSpaceOnUse">
      <path d="M40 0H0V40" fill="none" stroke="#22C55E" stroke-opacity="0.04" stroke-width="1"/>
    </pattern>
  </defs>

  <rect width="1200" height="630" fill="url(#bg)"/>
  <rect width="1200" height="630" fill="url(#grid)"/>

  <ellipse cx="1050" cy="200" rx="300" ry="240" fill="#1B8A3E" fill-opacity="0.12"/>
  <ellipse cx="150" cy="500" rx="200" ry="160" fill="#22C55E" fill-opacity="0.07"/>

  <g transform="translate(80 195)">
    <rect width="240" height="240" rx="52" fill="#1B8A3E"/>
    <rect x="42" y="148" width="156" height="48" rx="11" fill="#FFFFFF" fill-opacity="0.95"/>
    <rect x="42" y="149" width="154" height="4" rx="2" fill="#FFFFFF" fill-opacity="0.30"/>
    <rect x="55" y="98" width="130" height="42" rx="10" fill="#FFFFFF" fill-opacity="0.65"/>
    <rect x="55" y="99" width="128" height="3" rx="1.5" fill="#FFFFFF" fill-opacity="0.20"/>
    <rect x="72" y="52" width="96" height="38" rx="9" fill="#FFFFFF" fill-opacity="0.38"/>
    <rect x="72" y="53" width="94" height="2.5" rx="1.25" fill="#FFFFFF" fill-opacity="0.15"/>
    <line x1="120" y1="48" x2="120" y2="202" stroke="#86EFAC" stroke-opacity="0.9" stroke-width="9" stroke-linecap="round"/>
  </g>

  <text x="380" y="270" font-family="Inter, Segoe UI, system-ui, sans-serif" font-size="72" font-weight="800" fill="#F0FDF4" letter-spacing="-2">
    IT-Inventory
  </text>
  <text x="383" y="338" font-family="Inter, Segoe UI, system-ui, sans-serif" font-size="28" font-weight="400" fill="#6B7280" letter-spacing="1">
    GESTION DE STOCK IT INTELLIGENTE
  </text>
  <rect x="383" y="366" width="120" height="2" rx="1" fill="#22C55E"/>
  <g transform="translate(383 410)" font-family="Inter, Segoe UI, system-ui, sans-serif">
    <circle cx="8" cy="8" r="3.5" fill="#22C55E"/>
    <text x="20" y="13" font-size="22" fill="#86EFAC" font-weight="500">
      Scan · Stock · Alertes · Multi-sites
    </text>
  </g>
  <text x="383" y="560" font-family="Inter, Segoe UI, system-ui, sans-serif" font-size="18" fill="#374151">
    it-inventory.app
  </text>
</svg>
